# xmcd CD database file
#
# Track frame offsets:
#	150
#	3036
#	11707
#	23808
#	33337
#	45738
#	53446
#	59594
#	71074
#	88737
#	99743
#	106823
#	110424
#	124238
#	130603
#	134804
#	142457
#	154285
#	163283
#	167901
#	170256
#	179622
#	184613
#	187878
#	193626
#	202643
#	210745
#	214301
#	216100
#
# Disc length: 2972 seconds
#
# Revision: 1
# Processed by: cddbd v1.5.2PL0 Copyright (c) Steve Scherf et al.
# Submitted via: CDex 1.70beta2
#
DISCID=ac0b9a1d
DTITLE=Johann Sebastian Bach - Sonata for Flute and Basso continuo, BWV 1033 C-Dur (DOW 5507)
DYEAR=2005
DGENRE=Playalong
TTITLE0=Stimmton
TTITLE1=I. Andante and Presto
TTITLE2=II. Allegro
TTITLE3=III. Adagio
TTITLE4=IV. and V.  Menuet I and II
TTITLE5=Andante MMO slow
TTITLE6=Presto MMO slow
TTITLE7=Allegro MMO slow
TTITLE8=Allegro MMO slow
TTITLE9=Adagio MMO slow
TTITLE10=Menuet I MMO slow
TTITLE11=Menuet I MMO slow
TTITLE12=Menuet II MMO slow
TTITLE13=Andante MMO intermediate
TTITLE14=Presto MMO intermediate
TTITLE15=Allegro MMO intermediate
TTITLE16=Allegro MMO intermediate
TTITLE17=Adagio MMO intermediate
TTITLE18=Menuet I MMO intermediate
TTITLE19=Menuet I MMO intermediate
TTITLE20=Menuet II MMO intermediate
TTITLE21=Andante MMO original
TTITLE22=Presto MMO original
TTITLE23=Allegro MMO original
TTITLE24=Allegro MMO original
TTITLE25=Adagio MMO original
TTITLE26=Menuet I MMO original
TTITLE27=Menuet I MMO original
TTITLE28=Menuet II MMO original
EXTD=YEAR: 2005
EXTT0=
EXTT1=
EXTT2=
EXTT3=
EXTT4=
EXTT5=
EXTT6=
EXTT7=
EXTT8=
EXTT9=
EXTT10=
EXTT11=
EXTT12=
EXTT13=
EXTT14=
EXTT15=
EXTT16=
EXTT17=
EXTT18=
EXTT19=
EXTT20=
EXTT21=
EXTT22=
EXTT23=
EXTT24=
EXTT25=
EXTT26=
EXTT27=
EXTT28=
PLAYORDER=
